<?xml version="1.0" encoding="UTF-8" standalone="no"?>
<!DOCTYPE svg PUBLIC "-//W3C//DTD SVG 1.1//EN"
 "http://www.w3.org/Graphics/SVG/1.1/DTD/svg11.dtd">
<!-- Generated by graphviz version 12.2.1 (0)
 -->
<!-- Title: G Pages: 1 -->
<svg width="242pt" height="260pt"
 viewBox="0.00 0.00 242.25 260.00" xmlns="http://www.w3.org/2000/svg" xmlns:xlink="http://www.w3.org/1999/xlink">
<g id="graph0" class="graph" transform="scale(1 1) rotate(0) translate(4 256)">
<title>G</title>
<polygon fill="white" stroke="none" points="-4,4 -4,-256 238.25,-256 238.25,4 -4,4"/>
<!-- 8qi947kixhz1nw83dkwxm6d0wndprqkj&#45;hello&#45;2.12.2 -->
<g id="node1" class="node">
<title>8qi947kixhz1nw83dkwxm6d0wndprqkj&#45;hello&#45;2.12.2</title>
<polygon fill="#ff0000" stroke="black" points="160,-36 78,-36 78,0 160,0 160,-36"/>
<text text-anchor="middle" x="119" y="-12.95" font-family="Times,serif" font-size="14.00">hello&#45;2.12.2</text>
</g>
<!-- l0l2ll1lmylczj1ihqn351af2kyp5x19&#45;glibc&#45;2.42&#45;51 -->
<g id="node2" class="node">
<title>l0l2ll1lmylczj1ihqn351af2kyp5x19&#45;glibc&#45;2.42&#45;51</title>
<polygon fill="#ff0000" stroke="black" points="163.75,-108 74.25,-108 74.25,-72 163.75,-72 163.75,-108"/>
<text text-anchor="middle" x="119" y="-84.95" font-family="Times,serif" font-size="14.00">glibc&#45;2.42&#45;51</text>
</g>
<!-- l0l2ll1lmylczj1ihqn351af2kyp5x19&#45;glibc&#45;2.42&#45;51&#45;&gt;8qi947kixhz1nw83dkwxm6d0wndprqkj&#45;hello&#45;2.12.2 -->
<g id="edge1" class="edge">
<title>l0l2ll1lmylczj1ihqn351af2kyp5x19&#45;glibc&#45;2.42&#45;51&#45;&gt;8qi947kixhz1nw83dkwxm6d0wndprqkj&#45;hello&#45;2.12.2</title>
<path fill="none" stroke="black" d="M119,-71.7C119,-64.41 119,-55.73 119,-47.54"/>
<polygon fill="black" stroke="black" points="122.5,-47.62 119,-37.62 115.5,-47.62 122.5,-47.62"/>
</g>
<!-- r7vdyf8pwlqsgd5ydak9fmq3q1i5nm3m&#45;xgcc&#45;15.2.0&#45;libgcc -->
<g id="node3" class="node">
<title>r7vdyf8pwlqsgd5ydak9fmq3q1i5nm3m&#45;xgcc&#45;15.2.0&#45;libgcc</title>
<polygon fill="#ff0000" stroke="black" points="118,-180 0,-180 0,-144 118,-144 118,-180"/>
<text text-anchor="middle" x="59" y="-156.95" font-family="Times,serif" font-size="14.00">xgcc&#45;15.2.0&#45;libgcc</text>
</g>
<!-- r7vdyf8pwlqsgd5ydak9fmq3q1i5nm3m&#45;xgcc&#45;15.2.0&#45;libgcc&#45;&gt;l0l2ll1lmylczj1ihqn351af2kyp5x19&#45;glibc&#45;2.42&#45;51 -->
<g id="edge2" class="edge">
<title>r7vdyf8pwlqsgd5ydak9fmq3q1i5nm3m&#45;xgcc&#45;15.2.0&#45;libgcc&#45;&gt;l0l2ll1lmylczj1ihqn351af2kyp5x19&#45;glibc&#45;2.42&#45;51</title>
<path fill="none" stroke="red" d="M73.83,-143.7C80.81,-135.56 89.27,-125.69 96.97,-116.7"/>
<polygon fill="red" stroke="red" points="99.5,-119.12 103.35,-109.25 94.19,-114.57 99.5,-119.12"/>
</g>
<!-- ylvn8sswwfdp6l71hmz9ic8m4w9996j5&#45;libidn2&#45;2.3.8 -->
<g id="node4" class="node">
<title>ylvn8sswwfdp6l71hmz9ic8m4w9996j5&#45;libidn2&#45;2.3.8</title>
<polygon fill="#ff0000" stroke="black" points="222.25,-180 135.75,-180 135.75,-144 222.25,-144 222.25,-180"/>
<text text-anchor="middle" x="179" y="-156.95" font-family="Times,serif" font-size="14.00">libidn2&#45;2.3.8</text>
</g>
<!-- ylvn8sswwfdp6l71hmz9ic8m4w9996j5&#45;libidn2&#45;2.3.8&#45;&gt;l0l2ll1lmylczj1ihqn351af2kyp5x19&#45;glibc&#45;2.42&#45;51 -->
<g id="edge3" class="edge">
<title>ylvn8sswwfdp6l71hmz9ic8m4w9996j5&#45;libidn2&#45;2.3.8&#45;&gt;l0l2ll1lmylczj1ihqn351af2kyp5x19&#45;glibc&#45;2.42&#45;51</title>
<path fill="none" stroke="green" d="M164.17,-143.7C157.19,-135.56 148.73,-125.69 141.03,-116.7"/>
<polygon fill="green" stroke="green" points="143.81,-114.57 134.65,-109.25 138.5,-119.12 143.81,-114.57"/>
</g>
<!-- 1xakvg5jqmaiawwk0n1sbhvsvrdya512&#45;libunistring&#45;1.4.1 -->
<g id="node5" class="node">
<title>1xakvg5jqmaiawwk0n1sbhvsvrdya512&#45;libunistring&#45;1.4.1</title>
<polygon fill="#ff0000" stroke="black" points="234.25,-252 123.75,-252 123.75,-216 234.25,-216 234.25,-252"/>
<text text-anchor="middle" x="179" y="-228.95" font-family="Times,serif" font-size="14.00">libunistring&#45;1.4.1</text>
</g>
<!-- 1xakvg5jqmaiawwk0n1sbhvsvrdya512&#45;libunistring&#45;1.4.1&#45;&gt;ylvn8sswwfdp6l71hmz9ic8m4w9996j5&#45;libidn2&#45;2.3.8 -->
<g id="edge4" class="edge">
<title>1xakvg5jqmaiawwk0n1sbhvsvrdya512&#45;libunistring&#45;1.4.1&#45;&gt;ylvn8sswwfdp6l71hmz9ic8m4w9996j5&#45;libidn2&#45;2.3.8</title>
<path fill="none" stroke="blue" d="M179,-215.7C179,-208.41 179,-199.73 179,-191.54"/>
<polygon fill="blue" stroke="blue" points="182.5,-191.62 179,-181.62 175.5,-191.62 182.5,-191.62"/>
</g>
</g>
</svg>
